<?xml version="1.0" standalone="no"?><!-- Generator: Gravit.io --><svg xmlns="http://www.w3.org/2000/svg" xmlns:xlink="http://www.w3.org/1999/xlink" style="isolation:isolate" viewBox="0 0 560 315" width="560" height="315"><defs><clipPath id="_clipPath_LRmGG6OlTLbRRRNtj91qKTaAFyfKD7hx"><rect width="560" height="315"/></clipPath></defs><g clip-path="url(#_clipPath_LRmGG6OlTLbRRRNtj91qKTaAFyfKD7hx)"><path d=" M 261.5 157.5 C 261.5 143.702 272.702 132.5 286.5 132.5 C 300.298 132.5 311.5 143.702 311.5 157.5 C 311.5 171.298 300.298 182.5 286.5 182.5 C 272.702 182.5 261.5 171.298 261.5 157.5 Z " fill="rgb(171,62,22)"/><path d=" M 374 157.5 C 374 205.793 334.793 245 286.5 245 C 238.207 245 199 205.793 199 157.5 C 199 109.207 238.207 70 286.5 70" fill="none" vector-effect="non-scaling-stroke" stroke-width="12" stroke="rgb(248,243,230)" stroke-linejoin="miter" stroke-linecap="square" stroke-miterlimit="3"/><path d=" M 219 157.5 C 219 120.246 249.246 90 286.5 90 C 323.754 90 354 120.246 354 157.5 C 354 194.754 323.754 225 286.5 225" fill="none" vector-effect="non-scaling-stroke" stroke-width="12" stroke="rgb(231,204,143)" stroke-linejoin="miter" stroke-linecap="square" stroke-miterlimit="3"/><path d=" M 286.5 205 C 260.284 205 239 183.716 239 157.5 C 239 131.284 260.284 110 286.5 110 C 312.716 110 334 131.284 334 157.5" fill="none" vector-effect="non-scaling-stroke" stroke-width="12" stroke="rgb(239,170,82)" stroke-linejoin="miter" stroke-linecap="square" stroke-miterlimit="3"/></g></svg>